<svg xmlns="http://www.w3.org/2000/svg" viewBox="0 0 46.64 46.14"><defs><style>.cls-1{fill:#3a3a3a;opacity:0.7;}.cls-2{fill:#fff;}</style></defs><title>Ресурс 1</title><g id="Слой_2" data-name="Слой 2"><g id="Слой_1-2" data-name="Слой 1"><path class="cls-1" d="M0,2.6V43.54a2.62,2.62,0,0,0,2.63,2.6H44a2.62,2.62,0,0,0,2.63-2.6V2.6A2.62,2.62,0,0,0,44,0H2.63A2.62,2.62,0,0,0,0,2.6Z"/><path class="cls-2" d="M29,23.07,15.9,10a.82.82,0,0,1,.58-1.4.8.8,0,0,1,.58.24L30.74,22.49a.82.82,0,0,1,0,1.16h0L17.06,37.33a.82.82,0,1,1-1.16-1.16Z"/></g></g></svg>