<svg xmlns="http://www.w3.org/2000/svg" viewBox="0 0 46.64 46.14"><defs><style>.cls-1{fill:#3a3a3a;opacity:0.7;}.cls-2{fill:#fff;}</style></defs><title>Ресурс 7</title><g id="Слой_2" data-name="Слой 2"><g id="Слой_1-2" data-name="Слой 1"><path class="cls-1" d="M0,2.6V43.54a2.62,2.62,0,0,0,2.63,2.6H44a2.62,2.62,0,0,0,2.63-2.6V2.6A2.62,2.62,0,0,0,44,0H2.63A2.62,2.62,0,0,0,0,2.6Z"/><path class="cls-2" d="M21.87,5.36A17.77,17.77,0,0,0,7.57,31.3a4.24,4.24,0,0,1,.21,3.43l-2.24,6.1L12,38.68a4.22,4.22,0,0,1,3.25.22A17.77,17.77,0,1,0,21.87,5.36Zm1.45,32.41A14.7,14.7,0,1,1,38,23.07,14.7,14.7,0,0,1,23.32,37.77Z"/><circle class="cls-2" cx="23.32" cy="14.49" r="1.84"/><path class="cls-2" d="M23.32,33.49h0a1.84,1.84,0,0,1-1.84-1.84V21.23a1.84,1.84,0,0,1,1.84-1.84h0a1.84,1.84,0,0,1,1.84,1.84V31.65A1.84,1.84,0,0,1,23.32,33.49Z"/></g></g></svg>