<?xml version="1.0" encoding="UTF-8"?>
<!DOCTYPE svg PUBLIC "-//W3C//DTD SVG 1.1//EN" "http://www.w3.org/Graphics/SVG/1.1/DTD/svg11.dtd">
<!-- Creator: CorelDRAW X7 -->
<svg xmlns="http://www.w3.org/2000/svg" xml:space="preserve" width="328.543mm" height="109.183mm" version="1.1" style="shape-rendering:geometricPrecision; text-rendering:geometricPrecision; image-rendering:optimizeQuality; fill-rule:evenodd; clip-rule:evenodd"
viewBox="0 0 10834 3600"
 xmlns:xlink="http://www.w3.org/1999/xlink">
 <defs>
  <style type="text/css">
   <![CDATA[
    .str0 {stroke:white;stroke-width:164.884;stroke-linejoin:round}
    .fil1 {fill:none}
    .fil0 {fill:white}
   ]]>
  </style>
 </defs>
 <g id="Слой_x0020_1">
  <metadata id="CorelCorpID_0Corel-Layer"/>
  <g id="_530708200">
   <g>
    <path class="fil0" d="M4851 898c218,-6 437,-2 656,-1 407,755 813,1511 1220,2267 19,0 38,0 58,0 406,-755 812,-1511 1219,-2266 276,-6 551,3 826,0 581,0 1161,0 1741,0 -60,117 -120,234 -179,352 -705,0 -1410,0 -2116,0 -128,254 -260,507 -388,762 681,0 1361,0 2042,0 -59,117 -121,234 -179,352 -681,0 -1362,0 -2043,0 -135,267 -272,533 -407,800 705,0 1409,-1 2114,0 -61,116 -119,235 -181,352 -627,0 -1254,0 -1881,0 -305,-2 -611,6 -917,0 -105,-194 -207,-389 -312,-582 -621,0 -1242,0 -1864,0 -102,194 -204,388 -306,582 -203,4 -406,1 -609,-1 -238,-699 -477,-1399 -715,-2098 -362,700 -726,1398 -1088,2098 -166,1 -332,1 -498,0 -321,-872 -641,-1744 -962,-2617 138,0 276,0 413,0 272,747 543,1493 815,2240 11,0 32,-1 43,-1 384,-746 769,-1492 1153,-2239 111,0 222,0 333,0 254,747 508,1493 761,2239 15,0 31,0 46,1 402,-747 803,-1493 1205,-2240l0 0zm296 311c-236,458 -474,916 -711,1373 507,0 1014,0 1521,0 -236,-457 -475,-913 -710,-1372 -33,-1 -67,-1 -100,-1z"/>
    <path id="1" class="fil1 str0" d="M4851 898c218,-6 437,-2 656,-1 407,755 813,1511 1220,2267 19,0 38,0 58,0 406,-755 812,-1511 1219,-2266 276,-6 551,3 826,0 581,0 1161,0 1741,0 -60,117 -120,234 -179,352 -705,0 -1410,0 -2116,0 -128,254 -260,507 -388,762 681,0 1361,0 2042,0 -59,117 -121,234 -179,352 -681,0 -1362,0 -2043,0 -135,267 -272,533 -407,800 705,0 1409,-1 2114,0 -61,116 -119,235 -181,352 -627,0 -1254,0 -1881,0 -305,-2 -611,6 -917,0 -105,-194 -207,-389 -312,-582 -621,0 -1242,0 -1864,0 -102,194 -204,388 -306,582 -203,4 -406,1 -609,-1 -238,-699 -477,-1399 -715,-2098 -362,700 -726,1398 -1088,2098 -166,1 -332,1 -498,0 -321,-872 -641,-1744 -962,-2617 138,0 276,0 413,0 272,747 543,1493 815,2240 11,0 32,-1 43,-1 384,-746 769,-1492 1153,-2239 111,0 222,0 333,0 254,747 508,1493 761,2239 15,0 31,0 46,1 402,-747 803,-1493 1205,-2240m296 311c-236,458 -474,916 -711,1373 507,0 1014,0 1521,0 -236,-457 -475,-913 -710,-1372 -33,-1 -67,-1 -100,-1z"/>
   </g>
   <path class="fil0" d="M2461 7l470 0c57,0 98,11 123,34 25,22 38,62 38,119 0,45 -5,78 -16,100 -11,21 -30,37 -57,48 30,13 49,25 59,38 9,13 14,36 14,68l0 118 -161 0 0 -94c0,-14 -4,-25 -11,-35 -10,-12 -24,-18 -42,-18l-255 0 0 147 -162 0 0 -525zm162 136l0 106 258 0c18,0 31,-3 38,-11 8,-8 12,-21 12,-41 0,-20 -4,-34 -12,-42 -8,-8 -20,-12 -38,-12l-258 0zm844 -136l275 0 261 525 -189 0 -49 -88 -320 0 -50 88 -189 0 261 -525zm150 118l-26 0 -86 183 199 0 -87 -183zm461 407l0 -525 452 0c92,0 153,19 182,55 28,35 41,104 41,208 0,104 -13,172 -40,206 -30,37 -91,56 -183,56l-452 0zm162 -136l263 0c35,0 58,-9 71,-27 12,-18 18,-51 18,-99 0,-49 -6,-83 -18,-101 -12,-17 -36,-26 -71,-26l-263 0 0 253zm805 -389l0 525 -161 0 0 -525 161 0zm805 263c0,127 -15,203 -46,228 -33,27 -134,41 -300,41 -123,0 -203,-4 -241,-13 -48,-11 -78,-36 -91,-73 -10,-29 -15,-90 -15,-183 0,-128 16,-204 46,-229 33,-27 133,-41 301,-41 166,0 266,13 300,40 31,26 46,102 46,230zm-531 0c0,67 7,106 23,117 15,11 69,16 162,16 92,0 146,-5 162,-16 15,-12 23,-51 23,-117 0,-67 -8,-106 -23,-117 -15,-12 -69,-17 -162,-17 -92,0 -146,5 -162,17 -15,11 -23,50 -23,117zm1025 -263l469 0c58,0 99,11 124,34 25,22 38,62 38,119 0,45 -6,78 -16,100 -11,21 -30,37 -57,48 30,13 49,25 59,38 9,13 14,36 14,68l0 118 -162 0 0 -94c0,-14 -3,-25 -11,-35 -9,-12 -23,-18 -41,-18l-256 0 0 147 -161 0 0 -525zm161 136l0 106 259 0c18,0 31,-3 38,-11 8,-8 11,-21 11,-41 0,-20 -3,-34 -11,-42 -8,-8 -21,-12 -38,-12l-259 0zm626 389l0 -525 565 0 0 127 -404 0 0 73 385 0 0 126 -385 0 0 72 404 0 0 127 -565 0zm1005 -532c150,0 242,12 276,37 31,22 46,79 46,172l-161 0c0,-30 -9,-50 -25,-58 -20,-10 -66,-15 -136,-15 -78,0 -124,6 -138,18 -14,12 -21,50 -21,116 0,66 6,105 20,116 13,12 60,17 139,17 71,0 116,-4 134,-12 18,-9 27,-29 27,-61l161 0c0,93 -15,151 -44,172 -35,25 -128,37 -278,37 -151,0 -242,-14 -273,-41 -32,-27 -48,-104 -48,-229 0,-125 16,-200 46,-226 33,-29 124,-43 275,-43zm1135 270c0,127 -15,203 -46,228 -34,27 -134,41 -301,41 -122,0 -202,-4 -240,-13 -48,-11 -78,-36 -91,-73 -10,-29 -15,-90 -15,-183 0,-128 15,-204 46,-229 33,-27 133,-41 300,-41 167,0 267,13 300,40 32,26 47,102 47,230zm-531 0c0,67 7,106 23,117 15,11 69,16 161,16 93,0 147,-5 162,-16 16,-12 24,-51 24,-117 0,-67 -8,-106 -23,-117 -16,-12 -69,-17 -162,-17 -92,0 -146,5 -162,17 -16,11 -23,50 -23,117zm645 -263l469 0c58,0 99,11 124,34 25,22 38,62 38,119 0,45 -6,78 -16,100 -11,21 -30,37 -57,48 29,13 49,25 58,38 10,13 15,36 15,68l0 118 -162 0 0 -94c0,-14 -3,-25 -11,-35 -9,-12 -23,-18 -41,-18l-256 0 0 147 -161 0 0 -525zm161 136l0 106 259 0c18,0 30,-3 38,-11 8,-8 11,-21 11,-41 0,-20 -4,-34 -11,-42 -8,-8 -21,-12 -38,-12l-259 0zm613 389l0 -525 452 0c92,0 153,19 182,55 28,35 41,104 41,208 0,104 -13,172 -40,206 -30,37 -91,56 -183,56l-452 0zm162 -136l263 0c35,0 58,-9 71,-27 12,-18 18,-51 18,-99 0,-49 -6,-83 -18,-101 -12,-17 -36,-26 -71,-26l-263 0 0 253z"/>
  </g>
 </g>
</svg>
