<svg xmlns="http://www.w3.org/2000/svg" xmlns:xlink="http://www.w3.org/1999/xlink" viewBox="0 0 99.45 43.57"><defs><style>.cls-1{fill:none;}.cls-2{fill:#3a3a3a;opacity:0.7;}.cls-3{clip-path:url(#clip-path);}.cls-4,.cls-5{fill:#fff;}.cls-4{fill-rule:evenodd;}.cls-5{font-size:13.79px;font-family:Calibri, Calibri;}</style><clipPath id="clip-path"><rect class="cls-1" x="6.96" y="5.52" width="85.53" height="35.1"/></clipPath></defs><title>Ресурс 5</title><g id="Слой_2" data-name="Слой 2"><g id="Слой_1-2" data-name="Слой 1"><path class="cls-2" d="M0,39.21"/><rect class="cls-2" width="99.45" height="43.57" rx="3.03" ry="3.03"/><g class="cls-3"><path class="cls-4" d="M64.18,7.37a8.8,8.8,0,0,0-5,3.2,8.7,8.7,0,0,0,2.29,12.67A8.71,8.71,0,1,0,64.18,7.37m.16-1.55a10.2,10.2,0,0,1,6,19.31,10.21,10.21,0,1,1-6-19.31"/><path class="cls-4" d="M82.37,5.89a14,14,0,0,1,4.7,0,5.65,5.65,0,0,1,3.57,2,6.4,6.4,0,0,1,1.14,3.88h-1.5a4.29,4.29,0,0,0-1.52-3.56,7.11,7.11,0,0,0-4.38-1,6.79,6.79,0,0,0-3.64,1,3.31,3.31,0,0,0-1.18,3.61A4.12,4.12,0,0,0,82.27,14c2.5.94,5.2,1.33,7.59,2.56a4.25,4.25,0,0,1,2.32,2.81,5.44,5.44,0,0,1-.74,4.36,6.23,6.23,0,0,1-4.11,2.14,12.36,12.36,0,0,1-5.87-.34A5.87,5.87,0,0,1,78,22.39a7.29,7.29,0,0,1-.55-2.94h1.49a5,5,0,0,0,1.36,3.6,6.82,6.82,0,0,0,5.08,1.52,7.27,7.27,0,0,0,4.41-1.27,3.54,3.54,0,0,0,.72-4.2,4.33,4.33,0,0,0-2.57-1.85c-2.47-.83-5.1-1.26-7.4-2.54a4.68,4.68,0,0,1-2.35-2.66,5,5,0,0,1,.64-4.2,5.59,5.59,0,0,1,3.59-2"/><path class="cls-4" d="M42,5.94h1.52c0,2.48,0,5,0,7.45a5,5,0,0,1,3.22-2.09,6.34,6.34,0,0,1,5,1,6.74,6.74,0,0,1,2.28,4.38,11.67,11.67,0,0,1-.53,5.79,5.43,5.43,0,0,1-3.1,3.17,6.79,6.79,0,0,1-5.23-.26,6,6,0,0,1-2.93-4.29h1.54a5,5,0,0,0,1.66,2.64,4.67,4.67,0,0,0,4.21.57,4.32,4.32,0,0,0,2.63-3,10.05,10.05,0,0,0,0-5.49A4.3,4.3,0,0,0,49.77,13a4.53,4.53,0,0,0-4.58.8,6.6,6.6,0,0,0-1.64,4.87H42q0-6.34,0-12.68"/><path class="cls-4" d="M31.46,13.29a5.11,5.11,0,0,0-2.17,3.84h9A6.16,6.16,0,0,0,37,14a4.52,4.52,0,0,0-5.5-.76m-2-.3a5.57,5.57,0,0,1,4.4-1.8,5.51,5.51,0,0,1,4.48,2,8.69,8.69,0,0,1,1.55,5.43H29.18A7.19,7.19,0,0,0,30.35,23a4.41,4.41,0,0,0,6.77.05A5,5,0,0,0,38,21.14c.53,0,1.06,0,1.58,0a6.61,6.61,0,0,1-2.05,3.69A6.25,6.25,0,0,1,32.47,26,5.2,5.2,0,0,1,29,23.72a9.45,9.45,0,0,1-1.3-5.43A8.3,8.3,0,0,1,29.41,13"/><path class="cls-4" d="M7.12,11.46H8.7c1.26,4,2.51,8,3.8,12,1.26-4,2.54-8,3.78-12,.57,0,1.13,0,1.7,0q1.88,6,3.79,12c1.26-4,2.54-8,3.78-12,.53,0,1.06,0,1.6,0-1.53,4.77-3,9.56-4.53,14.34H20.93c-1.27-4-2.52-8-3.8-12-1.25,4-2.54,8-3.77,12-.57,0-1.15,0-1.72,0-1.48-4.78-3-9.55-4.51-14.33"/><text class="cls-5" transform="translate(17.96 38.8)">v 1.2</text><text class="cls-5" transform="translate(54.83 38.8)">v 2.0</text><text class="cls-5" transform="translate(47.28 38.01)">|</text></g></g></g></svg>